<svg width="768" height="768" viewBox="0 0 768 768" fill="none" xmlns="http://www.w3.org/2000/svg">
  <defs>
    <linearGradient id="bg" x1="96" y1="74" x2="690" y2="694" gradientUnits="userSpaceOnUse">
      <stop stop-color="#36A4FF"/>
      <stop offset="1" stop-color="#208BEE"/>
    </linearGradient>
  </defs>
  <rect x="82" y="82" width="604" height="604" rx="122" fill="url(#bg)"/>
  <rect x="212" y="176" width="276" height="250" rx="28" fill="#F2F2F2"/>
  <path d="M319.5 253.5C319.5 246.2 327.6 241.7 333.8 245.5L399.1 285.8C404.9 289.3 404.9 297.7 399.1 301.2L333.8 341.5C327.6 345.3 319.5 340.8 319.5 333.5V253.5Z" fill="#248FEF"/>
  <path d="M488 260.4L551.4 214.4C560.6 207.7 573.5 214.3 573.5 225.7V376.3C573.5 387.7 560.6 394.3 551.4 387.6L488 341.6V260.4Z" fill="#F2F2F2"/>
  <path d="M236 496.5C236 490.7 240.7 486 246.5 486H352.7L326.6 459.9C322.5 455.8 322.5 449.1 326.6 444.9C330.8 440.8 337.4 440.8 341.6 444.9L385.6 489C389.7 493.1 389.7 499.8 385.6 503.9L341.6 548C337.4 552.2 330.8 552.2 326.6 548C322.5 543.9 322.5 537.2 326.6 533.1L352.7 507H246.5C240.7 507 236 502.3 236 496.5Z" fill="#F2F2F2"/>
  <path d="M530.5 567C530.5 572.8 525.8 577.5 520 577.5H413.8L439.9 603.6C444.1 607.8 444.1 614.4 439.9 618.6C435.8 622.7 429.1 622.7 425 618.6L380.9 574.5C376.8 570.3 376.8 563.7 380.9 559.5L425 515.4C429.1 511.3 435.8 511.3 439.9 515.4C444.1 519.6 444.1 526.2 439.9 530.4L413.8 556.5H520C525.8 556.5 530.5 561.2 530.5 567Z" fill="#F2F2F2"/>
</svg>
